<?xml version="1.0" encoding="UTF-8"?>
<!DOCTYPE svg PUBLIC "-//W3C//DTD SVG 1.1//EN" "http://www.w3.org/Graphics/SVG/1.1/DTD/svg11.dtd">
<!-- Creator: CorelDRAW 2019 (64-Bit) -->
<svg xmlns="http://www.w3.org/2000/svg" xml:space="preserve" width="162.56mm" height="30.48mm" version="1.1" style="shape-rendering:geometricPrecision; text-rendering:geometricPrecision; image-rendering:optimizeQuality; fill-rule:evenodd; clip-rule:evenodd"
     viewBox="0 0 5124.9 960.92"
     xmlns:xlink="http://www.w3.org/1999/xlink">
 <defs>
  <style type="text/css">
   <![CDATA[
    .fil0 {fill:#011D7E}
    .fil2 {fill:#257CFF}
    .fil1 {fill:#26B2FD}
    .fil4 {fill:#011D7E;fill-rule:nonzero}
    .fil3 {fill:#257CFF;fill-rule:nonzero}
   ]]>
  </style>
 </defs>
    <g id="Layer_x0020_1">
  <metadata id="CorelCorpID_0Corel-Layer"/>
        <path class="fil0" d="M480.46 0c265.35,0 480.46,215.11 480.46,480.46 0,265.35 -215.11,480.46 -480.46,480.46 -265.35,0 -480.46,-215.11 -480.46,-480.46 0,-265.35 215.11,-480.46 480.46,-480.46z"/>
        <path class="fil1" d="M423.92 648.2l224.34 -224.46c31.12,-31.14 82.03,-31.14 113.15,0l0 0c31.12,31.14 31.12,82.08 -0,113.22l-224.34 224.46c-31.12,31.14 -82.03,31.14 -113.15,0l0 0c-31.12,-31.14 -31.12,-82.08 0,-113.22z"/>
        <path class="fil1" d="M199.51 423.97l224.33 -224.45c31.12,-31.14 82.03,-31.14 113.15,0l0 0c31.12,31.14 31.12,82.08 0,113.22l-224.33 224.45c-31.12,31.14 -82.03,31.14 -113.15,0l0 0c-31.12,-31.14 -31.12,-82.08 0,-113.21z"/>
        <path class="fil2" d="M256.25 400.38l448.43 0c44.04,0 80.08,36.03 80.07,80.08l0 0c0,44.04 -36.04,80.08 -80.08,80.08l-448.43 0c-44.04,0 -80.07,-36.03 -80.07,-80.08l0 0c0,-44.04 36.04,-80.08 80.08,-80.08z"/>
        <g id="_1640058182400">
   <path class="fil3" d="M1538.72 635.97c0,-23.45 -8.33,-41.53 -24.86,-54.1 -16.53,-12.43 -46.33,-25.71 -89.41,-39.69 -43.08,-13.84 -77.12,-27.68 -102.26,-41.1 -68.36,-37.01 -102.55,-86.86 -102.55,-149.58 0,-32.48 9.18,-61.58 27.54,-87.15 18.22,-25.56 44.63,-45.48 78.96,-59.89 34.32,-14.27 72.88,-21.47 115.68,-21.47 43.08,0 81.36,7.77 114.98,23.45 33.76,15.54 59.89,37.57 78.53,65.96 18.5,28.53 27.83,60.74 27.83,96.89l-124.01 0c0,-27.54 -8.76,-48.87 -26.13,-64.27 -17.37,-15.26 -41.81,-22.88 -73.31,-22.88 -30.22,0 -53.81,6.36 -70.76,19.21 -16.81,12.85 -25.14,29.8 -25.14,50.85 0,19.49 9.89,36.02 29.52,49.29 19.78,13.14 48.73,25.57 87.15,37.15 70.63,21.33 122.04,47.6 154.38,79.1 32.2,31.5 48.3,70.62 48.3,117.52 0,52.12 -19.63,93.08 -59.18,122.74 -39.41,29.66 -92.52,44.49 -159.19,44.49 -46.47,0 -88.56,-8.47 -126.7,-25.42 -38,-16.95 -67.09,-40.26 -87.15,-69.78 -19.92,-29.52 -29.94,-63.84 -29.94,-102.68l124.58 0c0,66.38 39.69,99.58 119.21,99.58 29.38,0 52.54,-5.93 69.07,-17.94 16.53,-12.01 24.86,-28.81 24.86,-50.28zm368.77 158.05l-119.92 0 0 -447.47 119.92 0 0 447.47zm-126.98 -563c0,-17.8 5.93,-32.63 17.94,-44.21 12.01,-11.58 28.39,-17.37 49.15,-17.37 20.34,0 36.58,5.79 48.73,17.37 12.15,11.58 18.22,26.41 18.22,44.21 0,18.22 -6.08,33.19 -18.36,44.77 -12.29,11.58 -28.53,17.37 -48.59,17.37 -20.2,0 -36.44,-5.79 -48.73,-17.37 -12.29,-11.58 -18.36,-26.55 -18.36,-44.77zm380.06 115.54l3.67 49.86c31.78,-38.84 74.72,-58.33 128.82,-58.33 57.63,0 97.18,22.74 118.65,68.22 31.5,-45.48 76.27,-68.22 134.61,-68.22 48.45,0 84.61,14.12 108.34,42.37 23.73,28.25 35.59,70.91 35.59,127.68l0 285.88 -120.06 0 0 -286.02c0,-25.43 -4.94,-43.93 -14.83,-55.65 -9.89,-11.72 -27.4,-17.65 -52.54,-17.65 -35.88,0 -60.74,17.09 -74.58,51.41l0.42 307.92 -119.49 0 0 -285.6c0,-25.99 -5.09,-44.77 -15.39,-56.36 -10.17,-11.58 -27.54,-17.37 -52.12,-17.37 -33.9,0 -58.48,14.12 -73.59,42.23l0 317.1 -119.64 0 0 -447.47 112.15 0z"/>
            <path class="fil4" d="M3144.61 635.97c0,-23.45 -8.33,-41.53 -24.86,-54.1 -16.53,-12.43 -46.33,-25.71 -89.41,-39.69 -43.08,-13.84 -77.12,-27.68 -102.26,-41.1 -68.37,-37.01 -102.55,-86.86 -102.55,-149.58 0,-32.48 9.18,-61.58 27.54,-87.15 18.22,-25.56 44.63,-45.48 78.96,-59.89 34.32,-14.27 72.88,-21.47 115.68,-21.47 43.08,0 81.36,7.77 114.98,23.45 33.76,15.54 59.89,37.57 78.53,65.96 18.5,28.53 27.83,60.74 27.83,96.89l-124.01 0c0,-27.54 -8.76,-48.87 -26.13,-64.27 -17.37,-15.26 -41.81,-22.88 -73.31,-22.88 -30.22,0 -53.81,6.36 -70.76,19.21 -16.81,12.85 -25.14,29.8 -25.14,50.85 0,19.49 9.89,36.02 29.52,49.29 19.78,13.14 48.73,25.57 87.15,37.15 70.63,21.33 122.04,47.6 154.38,79.1 32.2,31.5 48.3,70.62 48.3,117.52 0,52.12 -19.63,93.08 -59.18,122.74 -39.41,29.66 -92.52,44.49 -159.19,44.49 -46.47,0 -88.56,-8.47 -126.7,-25.42 -38,-16.95 -67.09,-40.26 -87.15,-69.78 -19.92,-29.52 -29.94,-63.84 -29.94,-102.68l124.58 0c0,66.38 39.69,99.58 119.21,99.58 29.38,0 52.54,-5.93 69.07,-17.94 16.53,-12.01 24.86,-28.81 24.86,-50.28zm448.99 166.53c-65.68,0 -119.21,-20.2 -160.46,-60.45 -41.25,-40.26 -61.87,-93.93 -61.87,-161.02l0 -11.58c0,-44.92 8.76,-85.17 26.13,-120.63 17.37,-35.45 41.95,-62.85 73.87,-81.92 31.92,-19.21 68.22,-28.81 109.04,-28.81 61.3,0 109.47,19.35 144.64,57.91 35.17,38.7 52.68,93.5 52.68,164.41l0 48.87 -285.03 0c3.81,29.24 15.54,52.54 34.89,70.2 19.49,17.65 44.07,26.41 73.87,26.41 46.19,0 82.06,-16.67 108.05,-49.86l58.76 65.82c-17.94,25.28 -42.23,45.2 -72.89,59.32 -30.51,14.27 -64.55,21.33 -101.69,21.33zm-13.7 -367.8c-23.73,0 -42.94,8.05 -57.77,24.15 -14.69,16.1 -24.15,39.13 -28.25,69.07l166.25 0 0 -9.61c-0.57,-26.55 -7.63,-47.18 -21.47,-61.73 -13.84,-14.55 -33.34,-21.89 -58.76,-21.89zm424.55 -39.55c31.64,-38 71.61,-57.06 119.5,-57.06 97.18,0 146.47,56.36 147.74,169.21l0 286.73 -119.49 0 0 -283.9c0,-25.71 -5.51,-44.63 -16.67,-56.92 -11.02,-12.29 -29.38,-18.5 -54.94,-18.5 -35.03,0 -60.45,13.56 -76.13,40.68l0 318.65 -119.63 0 0 -635.61 119.63 0 0 236.73zm658.89 398.88c-5.51,-10.73 -9.46,-24.01 -12.01,-39.97 -28.95,32.35 -66.67,48.45 -113,48.45 -43.79,0 -80.23,-12.71 -109.04,-38.14 -28.81,-25.42 -43.22,-57.48 -43.22,-96.19 0,-47.46 17.65,-83.9 52.83,-109.32 35.17,-25.43 86.02,-38.28 152.41,-38.56l55.09 0 0 -25.42c0,-20.62 -5.37,-37.01 -15.96,-49.29 -10.59,-12.29 -27.4,-18.5 -50.28,-18.5 -20.06,0 -35.88,4.8 -47.32,14.27 -11.44,9.46 -17.23,22.6 -17.23,39.12l-119.49 0c0,-25.85 7.91,-49.86 23.87,-71.75 16.1,-22.03 38.7,-39.27 67.94,-51.84 29.24,-12.57 62.01,-18.79 98.45,-18.79 55.23,0 99.01,13.84 131.36,41.53 32.49,27.83 48.73,66.67 48.73,116.95l0 194.07c0.28,42.37 6.22,74.58 17.8,96.33l0 7.06 -120.91 0zm-98.87 -83.05c17.65,0 33.9,-3.95 48.87,-11.72 14.83,-7.91 25.85,-18.5 33.05,-31.64l0 -76.98 -44.63 0c-59.89,0 -91.81,20.62 -95.63,62.01l-0.42 7.06c0,14.83 5.22,27.12 15.68,36.86 10.45,9.61 24.86,14.41 43.08,14.41zm479.22 -474.59l0 110.17 76.56 0 0 88.14 -76.56 0 0 223.17c0,16.53 3.25,28.39 9.6,35.6 6.36,7.2 18.51,10.73 36.44,10.73 13.14,0 24.86,-0.99 35.17,-2.83l0 90.4c-23.45,7.2 -47.6,10.73 -72.46,10.73 -83.9,0 -126.7,-42.23 -128.25,-126.84l0 -240.96 -65.4 0 0 -88.14 65.4 0 0 -110.17 119.49 0z"/>
  </g>
 </g>
</svg>
